<svg width="84" height="17" viewBox="0 0 84 17" fill="#c0ffee" xmlns="http://www.w3.org/2000/svg">
<path d="M0.429688 17H11.2578V14.0938H3.94531V0.03125H0.429688V17ZM19.8125 17L21.0898 13.0859H27.2305L28.5078 17H32.2812L26.4219 0.03125H21.8984L16.0156 17H19.8125ZM21.9805 10.3438L24.1016 3.85156H24.2188L26.3398 10.3438H21.9805ZM34.4609 2.9375H39.6641V17H43.1562V2.9375H48.3594V0.03125H34.4609V2.9375ZM52.8828 2.9375H58.0859V17H61.5781V2.9375H66.7812V0.03125H52.8828V2.9375ZM71.9609 17H83.375V14.0938H75.4766V9.96875H82.7656V7.0625H75.4766V2.9375H83.3516V0.03125H71.9609V17Z" />
</svg>
